HIERARCHY
ROOT Pelvis
{
	OFFSET 0.000000 0.941512 0.000000
	CHANNELS 6 Xposition Yposition Zposition Zrotation Yrotation Xrotation 
	JOINT Pelvis_L_Hip
	{
		OFFSET 0.000000 0.000000 0.000000
		CHANNELS 3 Zrotation Yrotation Xrotation
		JOINT L_Hip
		{
			OFFSET 0.062321 -0.080322 -0.016990
			CHANNELS 3 Zrotation Yrotation Xrotation
			JOINT L_Knee
			{
				OFFSET 0.093051 -0.381305 -0.029784
				CHANNELS 3 Zrotation Yrotation Xrotation
				JOINT L_Ankle
				{
					OFFSET -0.010371 -0.431000 -0.033614
					CHANNELS 3 Zrotation Yrotation Xrotation
					End Site #name: L_Foot
					{
						OFFSET 0.069299 -0.038670 0.119418
					}
				}
			}
		}
	}
	JOINT Pelvis_R_Hip
	{
		OFFSET 0.000000 0.000000 0.000000
		CHANNELS 3 Zrotation Yrotation Xrotation
		JOINT R_Hip
		{
			OFFSET -0.055334 -0.094904 -0.002373
			CHANNELS 3 Zrotation Yrotation Xrotation
			JOINT R_Knee
			{
				OFFSET -0.064207 -0.384370 -0.019592
				CHANNELS 3 Zrotation Yrotation Xrotation
				JOINT R_Ankle
				{
					OFFSET 0.025418 -0.419734 -0.065953
					CHANNELS 3 Zrotation Yrotation Xrotation
					End Site #name: R_Foot
					{
						OFFSET -0.057233 -0.039888 0.132134
					}
				}
			}
		}
	}
	JOINT Pelvis_Spine1
	{
		OFFSET 0.000000 0.000000 0.000000
		CHANNELS 3 Zrotation Yrotation Xrotation
		JOINT Spine1
		{
			OFFSET -0.005562 0.124093 -0.043360
			CHANNELS 3 Zrotation Yrotation Xrotation
			JOINT Spine2
			{
				OFFSET 0.012244 0.139499 0.029894
				CHANNELS 3 Zrotation Yrotation Xrotation
				JOINT Spine3
				{
					OFFSET -0.002556 0.056561 0.009225
					CHANNELS 3 Zrotation Yrotation Xrotation
					JOINT Spine3_Neck
					{
						OFFSET 0.000000 0.000000 0.000000
						CHANNELS 3 Zrotation Yrotation Xrotation
						JOINT Neck
						{
							OFFSET -0.005205 0.217920 -0.024551
							CHANNELS 3 Zrotation Yrotation Xrotation
							End Site #name: Head
							{
								OFFSET 0.002365 0.091850 0.046637
							}
						}
					}
					JOINT Spine3_L_Collar
					{
						OFFSET 0.000000 0.000000 0.000000
						CHANNELS 3 Zrotation Yrotation Xrotation
						JOINT L_Collar
						{
							OFFSET 0.072225 0.116603 -0.009480
							CHANNELS 3 Zrotation Yrotation Xrotation
							JOINT L_Shoulder
							{
								OFFSET 0.115937 -0.058643 -0.021018
								CHANNELS 3 Zrotation Yrotation Xrotation
								JOINT L_Elbow
								{
									OFFSET 0.021994 -0.254722 -0.024492
									CHANNELS 3 Zrotation Yrotation Xrotation
									End Site #name: L_Wrist
									{
										OFFSET 0.048810 -0.240214 0.103329
									}
								}
							}
						}
					}
					JOINT Spine3_R_Collar
					{
						OFFSET 0.000000 0.000000 0.000000
						CHANNELS 3 Zrotation Yrotation Xrotation
						JOINT R_Collar
						{
							OFFSET -0.073372 0.120704 -0.024611
							CHANNELS 3 Zrotation Yrotation Xrotation
							JOINT R_Shoulder
							{
								OFFSET -0.108089 -0.054969 -0.020504
								CHANNELS 3 Zrotation Yrotation Xrotation
								JOINT R_Elbow
								{
									OFFSET -0.033684 -0.260739 0.009889
									CHANNELS 3 Zrotation Yrotation Xrotation
									End Site #name: R_Wrist
									{
										OFFSET -0.067980 -0.232763 0.118463
									}
								}
							}
						}
					}
				}
			}
		}
	}
}
MOTION
Frames: 11
Frame Time: 0.041667
0.000000 0.930857 0.000000 -3.797937 2.698841 3.297637 0.000000 0.000000 0.000000 0.303812 -5.279793 -21.829412 -9.118889 3.959316 61.955552 3.707855 11.166281 0.298866 0.000000 0.000000 0.000000 14.351170 3.300919 -13.891963 -5.682601 2.913603 18.284447 -1.055843 13.651750 -9.747626 0.000000 0.000000 0.000000 0.346754 0.505464 -6.133710 2.574925 -0.859451 -16.558056 5.211779 -0.178057 14.591241 0.000000 0.000000 0.000000 -10.700529 6.851577 12.033514 0.000000 0.000000 0.000000 54.489531 -11.155519 -1.280318 16.339322 3.909792 -71.297796 58.075137 40.653153 -36.327010 0.000000 0.000000 0.000000 -35.876833 -0.792903 8.422993 40.376609 -10.471876 21.283301 -9.273705 0.662713 -24.659366 
0.007816 0.933955 0.034469 -2.853283 1.122389 3.931079 0.000000 0.000000 0.000000 0.901917 -6.535070 -27.544030 -7.756624 3.184587 56.199924 7.478883 16.488894 -3.528144 0.000000 0.000000 0.000000 12.688539 2.349329 -10.908947 -5.767799 2.707455 15.775271 -0.933740 16.014905 -10.313018 0.000000 0.000000 0.000000 0.042275 0.558257 -6.294750 2.184150 -0.825445 -17.242499 5.161835 0.050690 15.009790 0.000000 0.000000 0.000000 -11.271980 7.266623 11.544569 0.000000 0.000000 0.000000 54.704083 -10.389085 -0.606841 17.269709 4.356999 -71.053587 58.363537 40.526863 -35.660069 0.000000 0.000000 0.000000 -36.348363 -0.409489 8.433545 40.106182 -9.889662 20.160741 -7.846765 1.939738 -25.122848 
0.016123 0.935108 0.068539 -2.292799 -0.077229 4.546515 0.000000 0.000000 0.000000 0.915290 -7.399506 -31.455085 -3.650054 0.742983 46.415701 7.322868 13.297198 -5.689902 0.000000 0.000000 0.000000 11.252655 1.579874 -8.312163 -5.810023 2.539623 13.999137 -0.744101 18.312699 -10.709580 0.000000 0.000000 0.000000 -0.064609 0.606262 -6.738189 1.867513 -0.781082 -17.107641 5.292985 -0.095017 15.191423 0.000000 0.000000 0.000000 -11.771050 7.619965 11.007610 0.000000 0.000000 0.000000 54.516906 -9.750228 -0.178083 18.247997 4.847772 -71.120663 58.945378 40.648805 -35.059680 0.000000 0.000000 0.000000 -36.351014 0.137786 8.182768 39.230468 -9.146577 18.943579 -6.812211 2.749702 -25.023681 
0.024757 0.933442 0.104234 -1.874985 -0.944303 4.971814 0.000000 0.000000 0.000000 0.490453 -7.774657 -32.903533 1.149750 -1.179261 33.041099 4.919459 3.669726 -6.894147 0.000000 0.000000 0.000000 9.726390 0.850176 -5.604667 -5.468724 2.284448 12.517674 -1.014998 19.991867 -11.712490 0.000000 0.000000 0.000000 -0.038531 0.615171 -6.960579 1.546939 -0.747098 -16.969277 5.414881 -0.225910 15.299950 0.000000 0.000000 0.000000 -12.264162 7.896208 10.134685 0.000000 0.000000 0.000000 54.513055 -9.326505 0.079512 18.939981 5.248942 -71.617465 59.340768 40.933626 -35.078093 0.000000 0.000000 0.000000 -36.555279 0.412511 8.180892 38.489543 -8.513017 17.886974 -5.624129 3.553699 -24.485424 
0.032785 0.929051 0.142342 -1.802603 -1.638963 5.495016 0.000000 0.000000 0.000000 0.425733 -7.870804 -33.490458 4.145863 -1.533280 20.387099 1.724112 -5.336576 -5.711826 0.000000 0.000000 0.000000 8.735461 0.221847 -3.074404 -5.177943 2.102506 11.541464 -1.702995 20.889552 -13.165698 0.000000 0.000000 0.000000 0.136489 0.627948 -7.473528 1.354610 -0.717347 -16.725824 5.559231 -0.504775 14.963943 0.000000 0.000000 0.000000 -12.522362 8.102772 10.055530 0.000000 0.000000 0.000000 55.304044 -9.156553 0.081302 18.421156 4.893252 -72.070362 59.190678 41.532205 -36.606723 0.000000 0.000000 0.000000 -36.929912 0.637455 8.293013 38.504190 -8.210842 17.250714 -5.283672 3.690378 -24.027216 
0.041165 0.923358 0.183167 -1.798037 -2.368126 6.042139 0.000000 0.000000 0.000000 0.814632 -7.939778 -34.449888 3.384179 -0.964371 13.362730 1.074314 -5.673715 -4.798110 0.000000 0.000000 0.000000 7.977182 -0.281713 -0.917079 -5.415171 2.189590 11.657813 -2.416192 21.567294 -14.557041 0.000000 0.000000 0.000000 0.189842 0.674159 -8.142075 1.404152 -0.694515 -16.635886 5.532777 -0.781796 14.642279 0.000000 0.000000 0.000000 -12.736466 8.318819 10.235653 0.000000 0.000000 0.000000 55.428584 -9.504555 -0.739258 18.537222 4.897153 -72.341545 57.825629 42.033104 -39.818787 0.000000 0.000000 0.000000 -36.726625 0.826155 8.289702 38.267414 -8.200679 17.273738 -5.343052 3.590357 -23.870776 
0.050062 0.918122 0.227006 -1.505932 -3.014022 6.777948 0.000000 0.000000 0.000000 0.206074 -8.180901 -35.140043 2.536693 -0.762623 12.748849 1.056639 -3.578651 -3.779281 0.000000 0.000000 0.000000 6.872163 -0.577298 0.584526 -5.906995 2.491064 12.927111 -2.559644 22.523138 -15.022939 0.000000 0.000000 0.000000 0.001334 0.781605 -9.100434 1.488547 -0.682260 -16.879874 5.209326 -1.049744 14.682222 0.000000 0.000000 0.000000 -12.370925 8.049706 9.706012 0.000000 0.000000 0.000000 55.348819 -9.148141 -0.557486 18.619578 4.991231 -73.315230 55.217956 42.015506 -44.171437 0.000000 0.000000 0.000000 -36.182927 0.283243 8.871583 38.203605 -8.256602 17.341202 -5.737597 3.301206 -23.966432 
0.059297 0.915704 0.275448 -0.636758 -3.344386 7.549708 0.000000 0.000000 0.000000 -1.730656 -8.833687 -36.038652 2.588461 -0.983403 18.103396 -0.523197 -2.538342 -0.491191 0.000000 0.000000 0.000000 5.379019 -0.731324 1.747503 -6.792939 3.025479 14.965049 -1.793913 23.352163 -13.925056 0.000000 0.000000 0.000000 -1.067691 1.084122 -11.028411 1.733515 -0.672199 -16.656127 4.611640 -1.561405 14.660543 0.000000 0.000000 0.000000 -11.855512 7.819753 10.180987 0.000000 0.000000 0.000000 55.915693 -9.251545 -0.955372 18.397225 4.805458 -73.638554 52.696777 41.651935 -48.054151 0.000000 0.000000 0.000000 -35.576497 -0.639411 9.774318 38.005197 -8.530338 17.905537 -5.801618 3.244342 -23.951226 
0.069092 0.917668 0.326912 1.032265 -3.467219 7.653877 0.000000 0.000000 0.000000 -4.714005 -9.584944 -36.053512 2.508235 -1.182770 24.053625 0.709716 -2.236662 -2.487556 0.000000 0.000000 0.000000 3.600050 -0.622483 1.934623 -8.070164 4.207221 20.080282 0.321643 23.536157 -10.401219 0.000000 0.000000 0.000000 -2.735743 1.379438 -12.384939 1.668865 -0.663791 -16.333797 3.895714 -1.939412 14.439365 0.000000 0.000000 0.000000 -11.210885 7.517815 10.989193 0.000000 0.000000 0.000000 57.104683 -9.825831 -1.852532 18.476339 4.767420 -73.563422 52.057185 41.838208 -49.668863 0.000000 0.000000 0.000000 -35.436099 -1.047168 10.233200 38.914965 -9.476565 19.423052 -6.468410 2.788254 -24.176930 
0.077836 0.922641 0.378535 1.854808 -4.209092 6.484074 0.000000 0.000000 0.000000 -7.761599 -9.085963 -31.943445 3.270470 -1.440650 25.687634 2.739253 -2.061855 -6.054732 0.000000 0.000000 0.000000 2.160004 0.015876 -0.853567 -6.946021 5.764017 32.024005 5.569149 21.848931 -0.976107 0.000000 0.000000 0.000000 -3.012187 1.346725 -11.532618 1.279653 -0.637463 -16.373994 3.851953 -1.726291 14.092071 0.000000 0.000000 0.000000 -11.076582 7.564395 11.860515 0.000000 0.000000 0.000000 57.550461 -9.811289 -1.936662 18.688572 4.847848 -73.766290 52.019491 42.012844 -50.150251 0.000000 0.000000 0.000000 -35.811687 -0.496346 9.933621 39.995024 -10.502449 20.960311 -7.454592 1.997261 -24.135023 
0.083460 0.927050 0.424584 2.694728 -5.154312 5.125252 0.000000 0.000000 0.000000 -10.480643 -7.987625 -26.808451 3.840071 -1.535917 24.994629 4.514757 -1.673515 -9.216507 0.000000 0.000000 0.000000 0.709958 1.131141 -6.823218 -4.166960 6.900948 46.667895 11.497094 16.645386 11.467252 0.000000 0.000000 0.000000 -3.601130 1.265611 -8.980342 0.711606 -0.627398 -17.470399 4.127077 -1.947775 13.797165 0.000000 0.000000 0.000000 -10.813721 7.522300 12.418925 0.000000 0.000000 0.000000 58.101784 -9.785763 -2.244132 20.423165 5.669820 -72.897499 54.400970 42.803820 -47.454114 0.000000 0.000000 0.000000 -35.816121 -0.286227 9.986190 39.991279 -10.625823 21.144176 -7.431746 1.815861 -23.393900 
